<svg id="Ebene_1" data-name="Ebene 1" xmlns="http://www.w3.org/2000/svg" width="16" height="16" viewBox="0 0 16 16"><defs><style>.cls-1{fill:#fc0;}.cls-2{fill:#103a5d;}</style></defs><title>push_abo_typ_3</title><polygon class="cls-1" points="8.13 11.51 4.18 14.39 5.69 9.74 1.73 6.86 6.62 6.86 8.13 2.21 9.65 6.86 14.54 6.86 10.58 9.74 12.09 14.39 8.13 11.51"/><path class="cls-2" d="M8.13,3.43,9.2,6.72l.17.52h4l-2.8,2-.44.32.17.52,1.07,3.3-2.8-2-.45-.32-.44.32-2.8,2L6,10.11l.17-.52-.44-.32-2.8-2h4l.16-.52L8.13,3.43M8.13,1,6.35,6.49H.58L5.25,9.88,3.47,15.37,8.13,12l4.67,3.39L11,9.88l4.67-3.39H9.92L8.13,1Z"/></svg>