<svg id="Ebene_1" data-name="Ebene 1" xmlns="http://www.w3.org/2000/svg" width="16" height="16" viewBox="0 0 16 16"><defs><style>.cls-1{fill:#0098d6;}.cls-2{fill:#fc0;}</style></defs><title>push_example</title><path class="cls-1" d="M15.85,6.89c0,2.89-3.39,5.24-7.57,5.24A11.07,11.07,0,0,1,7,12.05L2.4,14.75l.54-4.14A4.63,4.63,0,0,1,.7,6.89C.7,4,4.09,1.65,8.28,1.65S15.85,4,15.85,6.89Z"/><path class="cls-2" d="M6.67,10.12a.79.79,0,0,1-.89.83.8.8,0,0,1-.91-.83c0-.53.33-.83.91-.83A.78.78,0,0,1,6.67,10.12ZM6.44,2.89c.11,0,.16,0,.16.17v3.5a1.34,1.34,0,0,1,0,.19L6.28,8.4c0,.11,0,.16-.16.16H5.43c-.1,0-.14-.05-.16-.16L5,6.75a1.54,1.54,0,0,1,0-.19V3.06c0-.12,0-.17.16-.17Z"/><path class="cls-2" d="M12.62,4.73v.59a1.68,1.68,0,0,1-1.14,1.9l-1.05.51c-.35.16-.51.27-.56.54l0,.18c0,.07,0,.11-.13.11h-1a.11.11,0,0,1-.12-.11L8.52,7.9c-.07-.56,0-.8.76-1.2l1.15-.58A.81.81,0,0,0,11,5.28V5c0-.65-.44-.72-1.28-.72h-2a.14.14,0,0,1-.16-.16V3.26c0-.17.08-.23.24-.28a10.3,10.3,0,0,1,2-.15C11.28,2.83,12.62,3.07,12.62,4.73Zm-2.51,5.39a.79.79,0,0,1-.89.83.8.8,0,0,1-.91-.83c0-.53.33-.83.91-.83A.78.78,0,0,1,10.11,10.12Z"/></svg>