<svg id="Ebene_1" data-name="Ebene 1" xmlns="http://www.w3.org/2000/svg" width="16" height="16" viewBox="0 0 16 16"><defs><style>.cls-1{fill:#103a5d;}.cls-2{fill:#0098d6;}</style></defs><title>push_abo_type</title><path class="cls-1" d="M11.17,12,2.44,7.26c.46,0,.84-.6.84-.6l.31-.58h0c1-1.67,4-6.29,7.56-4.44s1.25,7,.37,8.76h0l-.31.58S10.88,11.65,11.17,12Z"/><path class="cls-1" d="M10.67,13.71l-.16.29a.31.31,0,0,1-.42.1L1.25,9.28a.3.3,0,0,1-.15-.4l.16-.29a.31.31,0,0,1,.42-.1l8.84,4.82A.3.3,0,0,1,10.67,13.71Z"/><path class="cls-2" d="M7,14.27a1.47,1.47,0,0,1-2,.5,1.46,1.46,0,0,1-.68-2,1.19,1.19,0,0,1,.41-.45l2.44,1.32A1.11,1.11,0,0,1,7,14.27Z"/></svg>