<svg id="Ebene_1" data-name="Ebene 1" xmlns="http://www.w3.org/2000/svg" width="16" height="16" viewBox="0 0 16 16"><defs><style>.cls-1{fill:#103a5d;}.cls-2{fill:#fff;}.cls-3{fill:#bf2c38;}</style></defs><title>webpush_config_2</title><path class="cls-1" d="M15.88,7.92c0,2.89-3.39,5.24-7.58,5.24A10.9,10.9,0,0,1,7,13.08l-4.58,2.7L3,11.63A4.61,4.61,0,0,1,.73,7.92C.73,5,4.12,2.68,8.3,2.68S15.88,5,15.88,7.92Z"/><circle class="cls-2" cx="9.11" cy="8.01" r="4.91"/><path class="cls-3" d="M12.06,7.49a3,3,0,0,0-.49-1.17,2.75,2.75,0,0,0-.76-.76,3,3,0,0,0-1.17-.49,3,3,0,0,0-2.25.49,3,3,0,0,0-.76.76,2.82,2.82,0,0,0-.48,1.17A3.1,3.1,0,0,0,6.1,8a2.32,2.32,0,0,0,.05.53,2.92,2.92,0,0,0,.48,1.18,3.42,3.42,0,0,0,.76.76A2.92,2.92,0,0,0,8.57,11a2.32,2.32,0,0,0,.53,0,3.1,3.1,0,0,0,.54,0,3,3,0,0,0,1.17-.48,3,3,0,0,0,.76-.76A2.86,2.86,0,0,0,12.1,8,3.12,3.12,0,0,0,12.06,7.49ZM10.69,8.86a1.8,1.8,0,0,1-.76.76,1.48,1.48,0,0,1-.29.12,1.83,1.83,0,0,1-1.07,0,1.57,1.57,0,0,1-.3-.12,1.85,1.85,0,0,1-.76-.76A1.87,1.87,0,0,1,7.31,8a1.91,1.91,0,0,1,.08-.54l.12-.29a1.8,1.8,0,0,1,.76-.76,1.57,1.57,0,0,1,.3-.12,1.64,1.64,0,0,1,1.07,0,1.48,1.48,0,0,1,.29.12,1.74,1.74,0,0,1,.76.76,1.48,1.48,0,0,1,.12.29,1.61,1.61,0,0,1,.08.54,1.59,1.59,0,0,1-.08.53A1.88,1.88,0,0,1,10.69,8.86Z"/><path class="cls-3" d="M9.64,9.74v2.88H8.57V9.74a1.83,1.83,0,0,0,1.07,0Z"/><path class="cls-3" d="M9.64,3.43V6.32a1.64,1.64,0,0,0-1.07,0V3.43Z"/><path class="cls-3" d="M7.31,8a1.89,1.89,0,0,0,.08.53H4.51V7.49H7.39A1.91,1.91,0,0,0,7.31,8Z"/><path class="cls-3" d="M13.7,7.49V8.56H10.81A1.59,1.59,0,0,0,10.89,8a1.61,1.61,0,0,0-.08-.54Z"/><path class="cls-3" d="M8.27,9.62l-.88.88L6.24,11.65l-.76-.76,2-2A1.85,1.85,0,0,0,8.27,9.62Z"/><path class="cls-3" d="M12.73,5.16l-2,2a1.74,1.74,0,0,0-.76-.76l.88-.88L12,4.4Z"/><path class="cls-3" d="M8.27,6.44a1.8,1.8,0,0,0-.76.76l-2-2,.76-.77L7.39,5.56Z"/><path class="cls-3" d="M12.73,10.9l-.76.76L10.81,10.5l-.88-.88a1.8,1.8,0,0,0,.76-.76Z"/><path class="cls-3" d="M7.51,7.2l-.12.29A1.48,1.48,0,0,1,7.51,7.2Z"/></svg>