<svg id="Ebene_1" data-name="Ebene 1" xmlns="http://www.w3.org/2000/svg" width="16" height="16" viewBox="0 0 16 16"><defs><style>.cls-1{fill:#103a5d;}.cls-2{fill:#0098d6;}</style></defs><title>push_abo_type_2</title><path class="cls-1" d="M2.73,10.44l-.17-.13A4.91,4.91,0,0,1,.38,6.4C.38,3.33,3.75.84,7.91.84s7.53,2.49,7.53,5.56S12.06,12,7.91,12a11.07,11.07,0,0,1-1.3-.08l-.14,0-4.23,2.7Z"/><path class="cls-2" d="M7.91,1.21c3.95,0,7.16,2.33,7.16,5.19s-3.21,5.19-7.16,5.19a10.36,10.36,0,0,1-1.25-.08l-.27,0-.23.15-3.45,2.2.37-3.12,0-.43L2.78,10a4.56,4.56,0,0,1-2-3.61C.75,3.54,4,1.21,7.91,1.21m0-.75C3.54.46,0,3.12,0,6.4a5.28,5.28,0,0,0,2.34,4.21l-.56,4.7,4.78-3.06a10,10,0,0,0,1.35.09c4.37,0,7.91-2.66,7.91-5.94S12.28.46,7.91.46Z"/></svg>