<svg id="Ebene_1" data-name="Ebene 1" xmlns="http://www.w3.org/2000/svg" width="16" height="16" viewBox="0 0 16 16"><defs><style>.cls-1{fill:#b3b3b3;}.cls-2{fill:#103a5d;}.cls-3{fill:#0098d6;}.cls-4{fill:#ccc;opacity:0.69;}</style></defs><title>pwa_config</title><rect class="cls-1" x="4" y="0.49" width="9" height="15.41" rx="0.96"/><path class="cls-2" d="M13,1.59v.16H4V1.59A1.05,1.05,0,0,1,5,.49h7A1.05,1.05,0,0,1,13,1.59Z"/><path class="cls-2" d="M13,13.81v1a1.05,1.05,0,0,1-1,1.1H5a1.05,1.05,0,0,1-1-1.1v-1Z"/><circle class="cls-3" cx="8.51" cy="14.85" r="0.87"/><polygon class="cls-4" points="10.02 1.87 4.16 7.72 4.16 1.87 10.02 1.87"/><polygon class="cls-4" points="7 13.71 12.86 7.85 12.86 13.71 7 13.71"/><path class="cls-2" d="M11.28,7.23a2.88,2.88,0,0,0-.45-1.08,2.66,2.66,0,0,0-.71-.71A2.79,2.79,0,0,0,9,5a2.85,2.85,0,0,0-.51,0A2.7,2.7,0,0,0,8,5,2.77,2.77,0,0,0,7,5.44a2.66,2.66,0,0,0-.71.71h0a2.88,2.88,0,0,0-.45,1.08,3.15,3.15,0,0,0,0,1A2.83,2.83,0,0,0,8,10.48a4,4,0,0,0,.49,0,2.84,2.84,0,0,0,.51,0A2.65,2.65,0,0,0,10.12,10a2.73,2.73,0,0,0,1.16-1.79,3.14,3.14,0,0,0,0-1ZM10,8.5a1.68,1.68,0,0,1-.71.71L9,9.32a1.7,1.7,0,0,1-.51.08A1.62,1.62,0,0,1,8,9.32a1.65,1.65,0,0,1-1-.82A1.28,1.28,0,0,1,7,8.23a1.64,1.64,0,0,1-.08-.5A1.69,1.69,0,0,1,7,7.23,1.53,1.53,0,0,1,7.06,7a1.65,1.65,0,0,1,.71-.7A1.11,1.11,0,0,1,8,6.14a2,2,0,0,1,.49-.07A1.7,1.7,0,0,1,9,6.15a1.19,1.19,0,0,1,.26.11A1.65,1.65,0,0,1,10,7c0,.09.08.18.11.27a1.69,1.69,0,0,1,.08.5,1.64,1.64,0,0,1-.08.5A1.28,1.28,0,0,1,10,8.5Z"/><path class="cls-2" d="M9,3.47V6.15a1.7,1.7,0,0,0-.51-.08A2,2,0,0,0,8,6.14V3.47Z"/><path class="cls-2" d="M8.53,9.4A1.7,1.7,0,0,0,9,9.32V12H8V9.32A1.62,1.62,0,0,0,8.53,9.4Z"/><path class="cls-2" d="M7,7.23a1.69,1.69,0,0,0-.08.5,1.64,1.64,0,0,0,.08.5H4.28v-1Z"/><path class="cls-2" d="M12.8,7.23v1H10.12a1.64,1.64,0,0,0,.08-.5,1.69,1.69,0,0,0-.08-.5Z"/><path class="cls-2" d="M7.77,9.21,7,10,5.88,11.09l-.71-.7L6.24,9.32l.82-.82A1.68,1.68,0,0,0,7.77,9.21Z"/><path class="cls-2" d="M11.9,5.07,10.83,6.15,10,7a1.65,1.65,0,0,0-.71-.7l.82-.82L11.2,4.36Z"/><path class="cls-2" d="M7,5.44l.82.82a1.65,1.65,0,0,0-.71.7l-.82-.81h0L5.17,5.08l.71-.71Z"/><path class="cls-2" d="M11.9,10.4l-.7.7L10.12,10,9.3,9.21A1.68,1.68,0,0,0,10,8.5Z"/></svg>